<?xml version="1.0" encoding="UTF-8" standalone="no"?>
<!-- Created with Inkscape (http://www.inkscape.org/) -->

<svg
   xmlns:dc="http://purl.org/dc/elements/1.1/"
   xmlns:cc="http://creativecommons.org/ns#"
   xmlns:rdf="http://www.w3.org/1999/02/22-rdf-syntax-ns#"
   xmlns:svg="http://www.w3.org/2000/svg"
   xmlns="http://www.w3.org/2000/svg"
   xmlns:xlink="http://www.w3.org/1999/xlink"
   xmlns:sodipodi="http://sodipodi.sourceforge.net/DTD/sodipodi-0.dtd"
   xmlns:inkscape="http://www.inkscape.org/namespaces/inkscape"
   sodipodi:docname="krkrsign2.svg"
   inkscape:version="0.48.5 r10040"
   sodipodi:version="0.32"
   id="svg2"
   height="48.001617"
   width="48.25"
   version="1.1">
  <defs
     id="defs3">
    <linearGradient
       id="linearGradient2158">
      <stop
         id="stop2160"
         offset="0"
         style="stop-color:#d5b000;stop-opacity:1;" />
      <stop
         id="stop2162"
         offset="1.0000000"
         style="stop-color:#d5ff00;stop-opacity:1.0000000;" />
    </linearGradient>
    <linearGradient
       id="linearGradient2145">
      <stop
         id="stop2147"
         offset="0"
         style="stop-color:#ff135e;stop-opacity:1;" />
      <stop
         id="stop2153"
         offset="1"
         style="stop-color:#ff13ff;stop-opacity:0.96571428;" />
    </linearGradient>
    <linearGradient
       gradientUnits="userSpaceOnUse"
       y2="-849.53949"
       x2="-3069.5122"
       y1="-921.12982"
       x1="-3158.3215"
       gradientTransform="matrix(-0.04775656,0,0,0.04562863,-3651.6338,-159.76449)"
       id="linearGradient2151"
       xlink:href="#linearGradient2145"
       inkscape:collect="always" />
    <linearGradient
       gradientUnits="userSpaceOnUse"
       y2="-540.03546"
       x2="-2819.7817"
       y1="-648.91241"
       x1="-2933.3364"
       gradientTransform="matrix(-0.04775656,0,0,0.04562863,-3651.6338,-159.76449)"
       id="linearGradient2164"
       xlink:href="#linearGradient2158"
       inkscape:collect="always" />
  </defs>
  <sodipodi:namedview
     inkscape:window-y="5"
     inkscape:window-x="341"
     inkscape:window-height="778"
     inkscape:window-width="845"
     inkscape:current-layer="layer1"
     inkscape:document-units="px"
     inkscape:cy="26.534003"
     inkscape:cx="39.960717"
     inkscape:zoom="5.12"
     inkscape:pageshadow="2"
     inkscape:pageopacity="0.0"
     borderopacity="1.0"
     bordercolor="#666666"
     pagecolor="#ffffff"
     id="base"
     showgrid="false"
     fit-margin-top="0"
     fit-margin-left="0"
     fit-margin-right="0"
     fit-margin-bottom="0"
     inkscape:window-maximized="0" />
  <metadata
     id="metadata4">
    <rdf:RDF>
      <cc:Work
         rdf:about="">
        <dc:format>image/svg+xml</dc:format>
        <dc:type
           rdf:resource="http://purl.org/dc/dcmitype/StillImage" />
      </cc:Work>
    </rdf:RDF>
  </metadata>
  <g
     inkscape:label="shadow"
     id="layer2"
     inkscape:groupmode="layer"
     transform="translate(3534.875,215.56791)">
    <path
       id="path2169"
       d="m -3515.181,-211.72398 c 0.01,0 0.012,0.001 0.018,0.001 0.2255,0.009 0.4501,0.0284 0.674,0.0584 1.6143,0.21198 3.1676,0.96593 4.3602,2.25234 0.1423,0.15346 0.2734,0.3121 0.3997,0.47409 1.9926,2.30865 2.2748,5.54555 0.9088,8.11657 l 0.3516,0.37928 c 9e-4,-0.005 0,-0.0107 0,-0.0161 l 3.8511,4.15456 3.4996,-3.24429 0.01,0.009 0.01,-0.009 3.3055,3.56668 -0.014,0.0131 0.2465,0.2655 -3.5054,3.24866 0.7906,0.85192 2.8855,-2.67537 0.01,0.0102 0.01,-0.009 3.3056,3.56668 -0.013,0.0131 0.245,0.26403 -2.881,2.671 0.4726,0.50911 3.4719,-3.21949 0.01,0.0102 0.01,-0.009 3.31,3.5696 -0.013,0.0131 0.2451,0.26404 -3.4689,3.21512 0.1094,0.11816 0,0.004 0.2538,0.27425 -3.5696,3.30848 -16.5395,-17.83924 c -2.7178,1.12929 -5.9675,0.52848 -8.0844,-1.75489 -0.054,-0.0579 -0.099,-0.12023 -0.1503,-0.17943 -0.033,-0.0338 -0.067,-0.0646 -0.099,-0.0992 -2.7154,-2.9289 -2.5423,-7.50908 0.3866,-10.22448 1.4644,-1.3577 3.3424,-1.99411 5.1932,-1.92411 z m 0.051,4.31211 c -0.8298,-0.0314 -1.6714,0.25324 -2.3282,0.86213 -1.2256,1.13626 -1.3758,3.00054 -0.4012,4.3121 0.5322,0.57188 1.2226,0.90898 1.9417,1.00509 0.097,0.0129 0.1943,0.0206 0.2917,0.0248 5e-4,2e-5 0,-2e-5 0,0 0.8296,0.0308 1.6703,-0.2536 2.3267,-0.86213 1.2532,-1.16187 1.3782,-3.0833 0.3297,-4.39817 -0.5979,-0.59493 -1.3734,-0.914 -2.1619,-0.94382 z"
       style="opacity:0.17032967;fill:#000000;fill-opacity:1;stroke:#000000;stroke-width:0.04668048;stroke-opacity:1"
       inkscape:connector-curvature="0" />
    <path
       id="path2175"
       d="m -3527.9306,-199.44556 16.5395,17.84069 c 2.7179,-1.12928 5.9661,-0.52994 8.083,1.75344 0.123,0.13263 0.2332,0.27229 0.3443,0.41137 0.011,0.0128 0.022,0.0251 0.032,0.0379 0.056,0.0716 0.113,0.14274 0.1663,0.2159 1.3125,1.74494 1.7291,3.93385 1.2676,5.95759 0,-0.0581 -0.013,-0.11558 -0.018,-0.17359 -0.2904,1.4336 -1.0095,2.79315 -2.1633,3.86281 -2.9289,2.7154 -7.5091,2.54233 -10.2245,-0.38657 -0.9558,-1.03097 -1.5499,-2.26581 -1.7943,-3.5521 -0.3282,-1.61842 -0.097,-3.32215 0.6813,-4.80809 l -4.4113,-4.75849 -3.5084,3.25305 -3.307,-3.56668 0.034,-0.0321 -0.05,-0.054 3.4747,-3.22241 -0.9934,-1.07073 -2.8854,2.67537 -3.307,-3.56668 0.035,-0.0321 -0.051,-0.0554 2.8505,-2.64182 -0.6755,-0.72938 -3.4733,3.21949 -3.3099,-3.5696 0.035,-0.0321 -0.051,-0.0554 3.4384,-3.1874 -0.3122,-0.33698 0.034,-0.0321 -0.05,-0.054 3.5696,-3.30994 z m 19.5052,21.31401 c -0.8301,-0.0311 -1.6729,0.25325 -2.3297,0.86213 -0.8205,0.76075 -1.1578,1.84777 -0.9992,2.87669 0,4.8e-4 0,9.8e-4 0,0.001 0.013,0.0738 0.027,0.14737 0.045,0.22028 0.01,0.0334 0.021,0.066 0.031,0.0992 0.01,-0.0211 0.013,-0.0432 0.022,-0.0642 0.094,0.39467 0.2621,0.77505 0.5062,1.12033 0.064,0.084 0.1324,0.16607 0.2057,0.24507 1.2178,1.31352 3.2714,1.39136 4.5849,0.17359 0.8159,-0.75647 1.154,-1.83657 1.0022,-2.86063 -0.1046,-0.59319 -0.3714,-1.16395 -0.8111,-1.6382 -0.6089,-0.65675 -1.4267,-1.00458 -2.2567,-1.03572 z"
       style="opacity:0.17032967;fill:#000000;fill-opacity:1;stroke:#000000;stroke-width:0.04668048;stroke-opacity:1"
       inkscape:connector-curvature="0" />
  </g>
  <g
     id="layer1"
     inkscape:groupmode="layer"
     inkscape:label="Layer 1"
     transform="translate(3534.875,215.56791)">
    <path
       id="path2134"
       d="m -3494.0208,-183.63383 -16.5399,-17.8403 c -2.7179,1.12929 -5.9662,0.52939 -8.0832,-1.75398 -2.7154,-2.9289 -2.5421,-7.50979 0.3868,-10.22519 2.9289,-2.71541 7.5098,-2.54213 10.2252,0.38677 2.1511,2.32023 2.4831,5.67423 1.0747,8.31922 l 4.4491,4.79892 3.5088,-3.25303 3.3066,3.56656 -3.5088,3.25303 1.0443,1.12645 2.8852,-2.67482 3.3065,3.56656 -2.8851,2.67482 0.727,0.78413 3.4724,-3.2193 3.3096,3.56977 -3.4725,3.2193 0.363,0.39153 -3.5697,3.30956 z m -17.1595,-22.08973 c 1.3135,-1.21776 1.3912,-3.27132 0.1734,-4.58484 -1.2178,-1.31351 -3.2713,-1.39119 -4.5848,-0.17343 -1.3136,1.21778 -1.3923,3.27232 -0.1745,4.58584 1.2177,1.31352 3.2724,1.3902 4.5859,0.17243 z"
       style="fill:url(#linearGradient2151);fill-opacity:1;stroke:#000000;stroke-width:0.04668048;stroke-opacity:1"
       inkscape:connector-curvature="0" />
    <path
       id="path2120"
       d="m -3518.2381,-213.45216 c 2.9289,-2.7154 7.5097,-2.54213 10.2251,0.38678 1.7335,1.86979 2.2841,4.41033 1.6961,6.71075 -0.1983,-1.40837 -0.8088,-2.77344 -1.849,-3.89542 -2.7154,-2.9289 -7.2963,-3.10217 -10.2252,-0.38677 -1.0602,0.98296 -1.7543,2.2124 -2.086,3.51742 -0.3235,-2.27058 0.4309,-4.6565 2.239,-6.33276 z m 1.8799,6.59797 c 0.1431,0.34396 0.343,0.67034 0.6109,0.95935 1.2178,1.31352 3.2724,1.3902 4.5859,0.17243 0.2599,-0.24095 0.4708,-0.51589 0.6335,-0.81008 0.5077,1.2191 0.2372,2.67646 -0.7875,3.62641 -1.3135,1.21672 -3.3674,1.13973 -4.5848,-0.17343 -0.9767,-1.05348 -1.1174,-2.58186 -0.458,-3.77468 z m 10.0091,2.74346 3.86,4.16349 3.5088,-3.25303 3.3065,3.56656 -1.4869,1.37857 -1.9736,-2.12881 -3.5088,3.25303 -4.4481,-4.79991 c 0.3669,-0.68899 0.6128,-1.42549 0.7421,-2.1799 z m 11.096,6.18168 3.3066,3.56656 -1.4859,1.37758 -1.9736,-2.12881 -2.8862,2.67581 -1.0444,-1.12645 3.5088,-3.25303 -0.2886,-0.31129 0.8633,-0.80037 z m 4.6209,3.80621 3.3095,3.56977 -1.4869,1.37857 -1.9766,-2.13202 -3.4725,3.2193 -0.7269,-0.78413 2.8862,-2.67581 -0.606,-0.65362 2.0732,-1.92206 z"
       style="opacity:0.43406593;fill:#ffffff;fill-opacity:1;stroke:none"
       inkscape:connector-curvature="0" />
    <path
       id="path2124"
       d="m -3493.7709,-183.35518 -16.5398,-17.8403 c -2.7179,1.12929 -5.9663,0.52939 -8.0832,-1.75398 -2.7154,-2.92891 -2.5421,-7.50979 0.3868,-10.22519 2.9289,-2.71541 7.5098,-2.54214 10.2252,0.38677 2.1511,2.32023 2.4831,5.67423 1.0747,8.31922 l 4.4491,4.79892 3.5088,-3.25303 3.3066,3.56656 -3.5088,3.25303 1.0443,1.12645 2.8851,-2.67482 3.3066,3.56656 -2.8851,2.67482 0.727,0.78413 3.4724,-3.21931 3.3095,3.56978 -3.4724,3.2193 0.363,0.39153 -3.5698,3.30956 z m -17.1595,-22.08973 c 1.3136,-1.21777 1.3912,-3.27133 0.1735,-4.58484 -1.2178,-1.31352 -3.2714,-1.39119 -4.5849,-0.17343 -1.3135,1.21777 -1.3922,3.27232 -0.1745,4.58584 1.2178,1.31351 3.2724,1.3902 4.5859,0.17243 z"
       style="fill:none;stroke:#000000;stroke-width:0.91610438;stroke-miterlimit:4;stroke-opacity:1"
       inkscape:connector-curvature="0" />
    <path
       id="path1312"
       d="m -3525.7976,-203.01187 16.5398,17.8403 c 2.7179,-1.12929 5.9663,-0.5294 8.0832,1.75398 2.7154,2.9289 2.5421,7.50979 -0.3868,10.22519 -2.9289,2.71541 -7.5097,2.54213 -10.2251,-0.38677 -2.1512,-2.32023 -2.4831,-5.67424 -1.0748,-8.31922 l -4.4491,-4.79892 -3.5088,3.25303 -3.3066,-3.56656 3.5088,-3.25303 -1.0443,-1.12645 -2.8851,2.67482 -3.3066,-3.56656 2.8851,-2.67482 -0.727,-0.78413 -3.4724,3.2193 -3.3095,-3.56977 3.4724,-3.21931 -0.363,-0.39153 3.5698,-3.30955 z m 17.1595,22.08972 c -1.3136,1.21777 -1.3912,3.27133 -0.1735,4.58485 1.2178,1.31351 3.2714,1.39119 4.5849,0.17342 1.3135,-1.21776 1.3922,-3.27232 0.1745,-4.58583 -1.2178,-1.31352 -3.2724,-1.3902 -4.5859,-0.17244 z"
       style="fill:url(#linearGradient2164);fill-opacity:1;stroke:#000000;stroke-width:0.04668048;stroke-opacity:1"
       inkscape:connector-curvature="0" />
    <path
       id="path1291"
       d="m -3525.7504,-203.01055 16.5399,17.8403 c 2.7179,-1.12928 5.9663,-0.52939 8.0832,1.75398 1.6887,1.8215 2.2598,4.2818 1.746,6.5351 -0.09,-1.62384 -0.7262,-3.22726 -1.9175,-4.5122 -2.1169,-2.28337 -5.3653,-2.88326 -8.0832,-1.75398 l -16.5398,-17.8403 -3.5698,3.30956 0.363,0.39153 -2.3717,2.19877 -0.9293,-1.00236 3.4725,-3.21931 -0.363,-0.39153 3.5697,-3.30956 z m -0.069,9.29376 0.727,0.78413 -1.7843,1.65428 -0.727,-0.78413 1.7843,-1.65428 z m 4.1486,4.47478 0.9293,1.00236 -2.408,2.23249 -0.9293,-1.00236 2.408,-2.23249 z m 8.2476,8.89608 0.4374,0.47176 c -0.3049,0.57266 -0.5227,1.1795 -0.6637,1.80093 -0.043,-0.76301 0.03,-1.53074 0.2263,-2.27269 z m 3.8837,2.55615 c 0.1249,0.52623 0.3811,1.02906 0.7749,1.45381 1.2178,1.31351 3.2713,1.39119 4.5848,0.17342 0.3461,-0.32087 0.6045,-0.70094 0.778,-1.10914 0.2611,1.10147 -0.061,2.308 -0.9494,3.13204 -1.3135,1.21776 -3.3671,1.14009 -4.5849,-0.17343 -0.8969,-0.96749 -1.0883,-2.33593 -0.6034,-3.4767 z"
       style="opacity:0.90659335;fill:#fffeff;fill-opacity:1;stroke:none"
       inkscape:connector-curvature="0" />
    <path
       id="path2111"
       d="m -3525.8139,-203.09877 16.5399,17.8403 c 2.7178,-1.12929 5.9662,-0.52939 8.0832,1.75398 2.7154,2.9289 2.5421,7.50979 -0.3868,10.2252 -2.9289,2.7154 -7.5098,2.54213 -10.2252,-0.38678 -2.1511,-2.32023 -2.4831,-5.67423 -1.0747,-8.31922 l -4.4491,-4.79892 -3.5088,3.25303 -3.3066,-3.56656 3.5088,-3.25303 -1.0444,-1.12645 -2.8851,2.67482 -3.3066,-3.56656 2.8852,-2.67482 -0.727,-0.78413 -3.4724,3.2193 -3.3096,-3.56977 3.4724,-3.2193 -0.363,-0.39153 3.5698,-3.30956 z m 17.1595,22.08973 c -1.3135,1.21776 -1.3912,3.27133 -0.1734,4.58484 1.2177,1.31352 3.2713,1.39119 4.5848,0.17343 1.3135,-1.21777 1.3923,-3.27232 0.1745,-4.58584 -1.2178,-1.31351 -3.2724,-1.3902 -4.5859,-0.17243 z"
       style="fill:none;stroke:#000000;stroke-width:0.91610438;stroke-miterlimit:4;stroke-opacity:1"
       inkscape:connector-curvature="0" />
  </g>
</svg>
